<svg xmlns="http://www.w3.org/2000/svg" width="56" height="64"><path fill="#73964F" d="M40 0H8a8 8 0 00-8 8v48a8 8 0 008 8h40a8 8 0 008-8V16L40 0z"/><path fill="#C3DDAC" d="M40 8a8 8 0 008 8h8L40 0v8z"/><path d="M8.317 37.723l3.914-5.977-3.547-5.476h2.703l2.297 3.68 2.25-3.68h2.68l-3.562 5.563 3.914 5.891h-2.789l-2.539-3.961-2.547 3.961H8.317zm11.099 0v-11.36h2.313v9.43h5.75v1.93h-8.063zm8.324-3.727l2.25-.219c.135.755.41 1.31.824 1.664.414.354.973.531 1.676.531.745 0 1.306-.157 1.684-.473.377-.315.566-.684.566-1.105 0-.271-.08-.501-.238-.691-.159-.19-.437-.355-.832-.496-.271-.094-.888-.26-1.852-.5-1.24-.307-2.109-.685-2.609-1.133-.703-.63-1.055-1.398-1.055-2.305 0-.583.165-1.129.496-1.637.331-.508.807-.895 1.43-1.16.622-.266 1.374-.398 2.254-.398 1.438 0 2.52.315 3.246.945.727.63 1.108 1.472 1.145 2.523l-2.313.102c-.099-.588-.312-1.012-.637-1.27-.326-.258-.814-.387-1.465-.387-.672 0-1.198.138-1.578.414a.834.834 0 00-.367.711c0 .271.114.503.344.695.292.245 1 .5 2.125.766s1.957.541 2.496.824c.539.284.961.672 1.266 1.164s.457 1.101.457 1.824a3.38 3.38 0 01-.547 1.844c-.365.573-.88.999-1.547 1.277-.667.278-1.498.418-2.492.418-1.448 0-2.56-.334-3.336-1.004-.776-.667-1.24-1.643-1.391-2.924zm9.294 3.727l3.914-5.977-3.547-5.477h2.703l2.297 3.68 2.25-3.68h2.68l-3.563 5.563 3.914 5.891h-2.789l-2.539-3.961-2.547 3.961h-2.773z" fill="#FFF"/></svg>